<?xml version="1.0" encoding="utf-8"?>
<!-- Generator: Adobe Illustrator 21.0.0, SVG Export Plug-In . SVG Version: 6.00 Build 0)  -->
<svg version="1.1" xmlns="http://www.w3.org/2000/svg" xmlns:xlink="http://www.w3.org/1999/xlink" x="0px" y="0px"
	 viewBox="0 0 800 480" style="enable-background:new 0 0 800 480;" xml:space="preserve">
<style type="text/css">
	.st0{fill:#77B3D4;}
	.st1{opacity:0.2;}
	.st2{fill:#231F20;}
	.st3{fill:#FFFFFF;}
	.st4{fill:#C75C5C;}
	.st5{fill:#E0E0D1;}
</style>
<g id="bg">
	<rect class="st0" width="800" height="480"/>
</g>
<g id="Layer_1">
	<g>
		<g class="st1">
			<path class="st2" d="M67,168.4v263.9C67,453,84,470,104.7,470h597.9c20.8,0,37.7-17,37.7-37.7V168.4H67z"/>
		</g>
		<g>
			<path class="st3" d="M67,149.5v263.9c0,20.8,17,37.7,37.7,37.7h597.9c20.8,0,37.7-17,37.7-37.7V149.5H67z"/>
		</g>
		<g class="st1">
			<path class="st2" d="M702.7,69.6H104.7C84,69.6,67,86.6,67,107.3v66h673.4v-66C740.4,86.6,723.4,69.6,702.7,69.6z"/>
		</g>
		<g>
			<path class="st4" d="M702.7,50.7H104.7C84,50.7,67,67.7,67,88.5v66h673.4v-66C740.4,67.7,723.4,50.7,702.7,50.7z"/>
		</g>
	</g>
	<g class="st1">
		<path class="st2" d="M142.5,137.7c-10.4,0-18.9-8.5-18.9-18.9v-66c0-10.4,8.5-18.9,18.9-18.9l0,0c10.4,0,18.9,8.5,18.9,18.9v66
			C161.3,129.2,152.9,137.7,142.5,137.7L142.5,137.7z"/>
	</g>
	<g class="st1">
		<path class="st2" d="M659.3,137.7c-10.4,0-18.9-8.5-18.9-18.9v-66c0-10.4,8.5-18.9,18.9-18.9l0,0c10.4,0,18.9,8.5,18.9,18.9v66
			C678.2,129.2,669.7,137.7,659.3,137.7L659.3,137.7z"/>
	</g>
	<g>
		<path class="st5" d="M142.5,118.8c-10.4,0-18.9-8.5-18.9-18.9v-66c0-10.4,8.5-18.9,18.9-18.9l0,0c10.4,0,18.9,8.5,18.9,18.9v66
			C161.3,110.3,152.9,118.8,142.5,118.8L142.5,118.8z"/>
	</g>
	<g>
		<path class="st5" d="M659.3,118.8c-10.4,0-18.9-8.5-18.9-18.9v-66c0-10.4,8.5-18.9,18.9-18.9l0,0c10.4,0,18.9,8.5,18.9,18.9v66
			C678.2,110.3,669.7,118.8,659.3,118.8L659.3,118.8z"/>
	</g>
</g>
</svg>
